HIERARCHY
ROOT Hips
{
  OFFSET 13.6774 106.653 -34.4427
  CHANNELS 6 Xposition Yposition Zposition Zrotation Xrotation Yrotation
  JOINT ToSpine
  {
    OFFSET -2.69724 7.43032 -0.144315
    CHANNELS 3 Zrotation Xrotation Yrotation
    JOINT Spine
    {
      OFFSET -0.0310711 10.7595 1.96963
      CHANNELS 3 Zrotation Xrotation Yrotation
      JOINT Spine1
      {
        OFFSET 19.9056 3.91189 0.764692
        CHANNELS 3 Zrotation Xrotation Yrotation
        JOINT Neck
        {
          OFFSET 25.9749 7.03908 -0.130764
          CHANNELS 3 Zrotation Xrotation Yrotation
          JOINT Head
          {
            OFFSET 9.52751 0.295786 -0.907742
            CHANNELS 3 Zrotation Xrotation Yrotation
            End Site
            {
              OFFSET 16.4037 0.713936 2.7358
            }
          }
        }
        JOINT LeftShoulder
        {
          OFFSET 17.7449 4.33886 11.7777
          CHANNELS 3 Zrotation Xrotation Yrotation
          JOINT LeftArm
          {
            OFFSET 0.911315 1.27913 9.80584
            CHANNELS 3 Zrotation Xrotation Yrotation
            JOINT LeftForeArm
            {
              OFFSET 28.6126 1.18197 -3.53199
              CHANNELS 3 Zrotation Xrotation Yrotation
              JOINT LeftHand
              {
                OFFSET 27.5088 0.0218783 0.327423
                CHANNELS 3 Zrotation Xrotation Yrotation
                End Site
                {
                  OFFSET 18.6038 -0.000155887 0.382096
                }
              }
            }
          }
        }
        JOINT RightShoulder
        {
          OFFSET 17.1009 2.89543 -12.2328
          CHANNELS 3 Zrotation Xrotation Yrotation
          JOINT RightArm
          {
            OFFSET 1.4228 0.178766 -10.211
            CHANNELS 3 Zrotation Xrotation Yrotation
            JOINT RightForeArm
            {
              OFFSET 28.733 1.87905 2.64907
              CHANNELS 3 Zrotation Xrotation Yrotation
              JOINT RightHand
              {
                OFFSET 27.4588 0.290562 -0.101845
                CHANNELS 3 Zrotation Xrotation Yrotation
                End Site
                {
                  OFFSET 17.8396 -0.255518 -0.000602873
                }
              }
            }
          }
        }
      }
    }
  }
  JOINT LeftUpLeg
  {
    OFFSET -5.61296 -2.22332 -10.2353
    CHANNELS 3 Zrotation Xrotation Yrotation
    JOINT LeftLeg
    {
      OFFSET 2.56703 -44.7417 -7.93097
      CHANNELS 3 Zrotation Xrotation Yrotation
      JOINT LeftFoot
      {
        OFFSET 3.16933 -46.5642 -3.96578
        CHANNELS 3 Zrotation Xrotation Yrotation
        JOINT LeftToeBase
        {
          OFFSET 0.346054 -6.02161 12.8035
          CHANNELS 3 Zrotation Xrotation Yrotation
          End Site
          {
            OFFSET 0.134235 -1.35082 5.13018
          }
        }
      }
    }
  }
  JOINT RightUpLeg
  {
    OFFSET -5.7928 -1.72406 10.6446
    CHANNELS 3 Zrotation Xrotation Yrotation
    JOINT RightLeg
    {
      OFFSET -2.57161 -44.7178 -7.85259
      CHANNELS 3 Zrotation Xrotation Yrotation
      JOINT RightFoot
      {
        OFFSET -3.10148 -46.5936 -4.03391
        CHANNELS 3 Zrotation Xrotation Yrotation
        JOINT RightToeBase
        {
          OFFSET -0.0828122 -6.13587 12.8035
          CHANNELS 3 Zrotation Xrotation Yrotation
          End Site
          {
            OFFSET -0.131328 -1.35082 5.13018
          }
        }
      }
    }
  }
}
MOTION
Frames: 21
Frame Time: 0.03333333333333333
0.0000 93.1000 0.0000 -49.9727 -44.3044 -142.8479 -70.9975 -0.2406 87.9514 86.3113 55.9365 -15.0388 5.2496 1.7238 8.4405 -155.6362 3.6782 -178.9870 -155.7858 42.6235 176.5164 -0.9160 -24.1090 -26.8353 -48.2412 32.5193 -114.1700 -1.5012 -0.0824 -96.9035 -0.5292 -0.0513 0.0750 -1.0824 2.0352 42.8349 -49.1689 -39.0424 103.6888 -15.6676 -14.3147 129.5039 0.4010 -0.0635 -0.5266 -71.5545 5.1991 111.0750 -0.7128 38.9233 9.0668 -2.0032 -19.2182 -2.0433 9.7810 -19.4369 33.1618 0.9669 22.6005 87.6651 9.6021 68.7864 6.8052 -5.6600 0.4418 0.0936 -1.4391 -0.9735 3.2909 
0.0000 93.1000 0.0000 -50.4534 -44.0871 -142.9025 -70.9941 -0.2034 87.9603 89.1783 57.0787 -14.7526 4.4242 3.2727 8.0619 -154.8807 5.8570 -178.7406 -152.7758 44.2219 174.6656 -1.0160 -22.4369 -27.0415 -45.6097 35.4160 -113.1401 0.0822 -0.9630 -97.0291 -0.1044 0.1812 0.2921 -1.1953 2.4963 43.9630 -51.3268 -40.9091 98.3416 -14.6088 -14.0215 130.6452 -0.1445 0.2211 -0.6508 -69.2022 5.0770 108.7179 -1.8029 43.2554 6.2258 -0.8855 -19.2900 -2.4918 10.5599 -21.2813 36.0922 2.4602 20.9289 86.8485 11.9449 70.9618 4.8591 -5.0291 -0.3985 0.1958 -0.7846 -2.8965 6.5004 
0.0000 93.1000 0.0000 -49.1941 -45.2115 -142.0124 -70.9811 -0.2222 87.9588 90.8219 58.0347 -15.0837 3.7032 4.6888 6.8809 -152.6244 7.5996 -179.0286 -148.7157 45.4290 172.3264 -0.9471 -21.5133 -25.8354 -45.6666 36.9534 -109.0449 1.6148 -1.3909 -97.4290 -0.0119 0.0429 0.2558 -1.4477 2.8696 45.0767 -52.9199 -40.9735 95.1294 -13.6121 -12.8431 130.6413 -0.0473 0.1588 -0.3749 -68.5411 4.9758 107.8354 -2.0684 46.5373 4.1201 -1.4953 -19.2902 -2.3492 11.8940 -22.8905 37.0473 1.6588 19.8638 86.7148 13.2163 71.4154 8.0129 -2.6431 -3.8981 0.0932 0.6160 -3.0451 1.6812 
0.0000 93.1000 0.0000 -47.2677 -47.3495 -140.2247 -70.9754 -0.2254 87.9649 92.0874 58.4779 -15.9897 4.5489 4.8951 7.7712 -153.2010 9.5577 -177.5962 -147.8410 46.4678 171.7528 -0.7630 -20.9047 -25.0208 -50.9861 38.9528 -103.1191 -1.7255 0.1872 -98.9256 0.1070 -0.0201 -0.0564 -1.5820 3.2495 44.3041 -53.4758 -40.1115 95.4533 -12.9635 -12.0843 129.8056 0.4608 0.1719 -0.1333 -68.8576 5.6542 107.2036 -2.0277 47.1549 3.4083 -1.2669 -18.7844 -2.3222 12.7389 -23.1463 36.0291 1.3110 17.8409 86.5391 13.4903 72.0077 5.9255 -0.4232 -6.6552 0.0570 -0.6266 0.7320 3.7574 
0.0000 93.1000 0.0000 -45.3996 -49.2124 -138.9107 -70.9595 -0.2331 87.9495 93.9762 58.9540 -16.9514 3.9089 5.0540 8.3613 -152.7339 11.0676 -176.5108 -146.8453 47.0895 172.8503 -0.4798 -19.9480 -23.7903 -57.7272 39.6047 -93.7315 -1.4597 -0.1185 -101.1585 0.2818 -0.0388 0.2340 -1.7082 3.0942 43.6063 -55.2088 -38.0157 95.9074 -12.0673 -10.1989 128.9480 0.4432 0.0970 0.0382 -68.2325 5.9536 106.2274 -1.7765 46.2731 3.8589 -0.8982 -19.8824 -2.2800 12.5790 -23.1514 34.6908 1.8267 16.1815 86.9267 14.0237 72.7767 6.1434 -2.8236 -5.6341 0.2793 -0.2304 -2.8845 0.5071 
0.0000 93.1000 0.0000 -43.2175 -51.8700 -137.0673 -70.9384 -0.1873 87.9208 94.0724 59.4100 -15.8611 3.7409 5.7682 9.1978 -151.6576 12.4694 -176.1295 -145.8893 48.1102 172.8076 -0.5193 -18.0599 -22.0429 -65.5803 38.0097 -88.9282 0.8169 -1.0024 -103.3341 0.1594 0.1836 0.1067 -1.7376 2.9874 42.7623 -60.1632 -36.4064 94.2819 -12.7710 -10.6896 128.0564 -0.0534 0.3901 0.1042 -69.2749 7.9077 106.9528 -2.1081 44.7063 5.3031 -0.8069 -21.1004 -2.6139 11.9400 -23.2464 33.4235 1.0044 15.6498 86.8898 14.2258 73.1126 4.5233 -2.9080 -7.6120 0.5141 -0.2989 -0.8515 -2.3035 
0.0000 93.1000 0.0000 -36.2395 -55.3464 -129.6169 -70.9251 -0.1443 87.9155 92.2519 59.9387 -14.4698 3.9882 6.6518 9.3099 -149.4555 14.2662 -176.2100 -146.0948 50.0328 171.9136 -0.4871 -16.7724 -20.6615 -71.5642 35.7612 -87.8991 -0.6989 -0.1464 -104.8192 0.3249 0.3356 -0.0809 -1.6936 2.9468 42.7130 -65.3799 -35.7299 93.4435 -11.7992 -9.8084 128.4400 -0.5230 0.5774 0.1231 -68.3984 10.1394 106.0429 -1.4768 42.8256 4.4999 -0.7171 -22.1101 -2.8427 11.4717 -22.0474 30.4393 -0.5234 13.8732 87.6745 12.1596 72.6335 2.5214 -3.2081 -9.9944 0.7664 0.0732 -0.8238 -4.3674 
0.0000 93.1000 0.0000 -28.3624 -58.8881 -120.5152 -70.9228 -0.1341 87.9197 91.2237 60.8448 -12.4502 4.9560 6.9335 9.1716 -147.5136 15.9093 -177.3229 -145.5845 52.2139 171.0225 -0.3765 -15.8149 -19.0212 -78.1069 33.6428 -88.8766 -0.9659 -0.0907 -108.0866 0.0593 0.3094 -0.2275 -1.7098 3.0168 42.6944 -71.9815 -34.0703 90.2869 -11.8630 -9.6443 127.8763 -0.3987 0.5849 0.0574 -66.2474 11.7225 105.4404 -1.5846 42.5195 5.0348 -1.0179 -21.0823 -2.6170 10.6843 -22.0641 28.6076 -1.3534 11.2998 87.8784 11.0605 71.4579 0.7426 -4.1554 -13.0751 1.1685 1.0452 -1.7500 -7.2308 
0.0000 93.1000 0.0000 -17.1796 -62.0564 -108.9151 -70.9284 -0.2139 87.9394 91.0351 61.1735 -10.0675 5.2745 8.0287 9.3198 -145.3827 17.8917 -179.6058 -143.9287 54.1196 171.4498 0.1280 -15.6363 -17.9995 -82.9527 31.9794 -90.7616 -0.2387 -1.0343 -108.9473 0.7277 -0.2349 -0.2425 -1.7693 3.3220 41.6461 -78.1704 -32.6459 88.2140 -10.6644 -8.5981 128.2483 -0.0425 -0.0018 0.0094 -64.5468 12.9770 105.0805 -1.7456 40.9975 4.9244 -1.3758 -21.3199 -2.0129 9.0486 -20.1560 25.6067 -3.1956 7.1825 87.6173 8.8054 67.9435 0.6711 -4.9634 -15.5505 0.9904 1.2654 -6.8761 -11.8423 
0.0000 93.1000 0.0000 -4.9653 -63.3864 -96.4153 -70.9167 -0.1987 87.9147 89.3228 61.9344 -9.0183 4.9973 8.3654 11.8047 -143.3600 20.6872 -176.6897 -146.0537 57.2674 171.9653 0.1591 -14.8847 -17.8619 -86.9364 31.9852 -95.0965 1.8555 -0.9245 -109.1753 0.1720 -0.2247 -0.3073 -1.6904 3.2541 40.0574 -85.3447 -31.5377 87.4805 -9.1814 -7.1993 127.0475 -0.0111 0.0083 -0.1391 -62.5475 13.6978 106.0054 -1.7379 40.3058 4.0590 -3.3359 -19.9854 -1.6251 8.4306 -19.2563 24.0443 -5.2000 2.0830 85.8880 7.0319 66.0142 0.9158 -6.4235 -17.0027 1.2417 1.9381 -11.0502 -18.5672 
0.0000 93.1000 0.0000 7.3844 -64.1214 -83.3064 -70.9192 -0.2391 87.9094 90.0182 62.9431 -8.1198 3.6604 9.3297 11.7804 -142.3344 22.6756 -178.6524 -145.2186 59.2526 172.4878 0.3678 -14.8512 -18.1086 -90.2318 33.6284 -98.9274 2.5910 -1.9457 -110.2563 -0.1425 -0.4454 0.0798 -1.8031 3.7663 39.7843 -91.9727 -29.0707 86.5464 -7.8417 -5.6900 126.2522 0.4042 -0.3245 -0.2318 -60.6272 15.5619 107.9259 -1.3360 40.3479 0.2254 -2.9886 -19.2386 -1.3899 9.0195 -19.9839 28.4271 -7.1421 -3.3778 83.4337 6.0881 63.1867 1.2550 -6.4602 -16.8154 0.9989 1.9232 -16.5304 -23.9424 
0.0000 93.1000 0.0000 16.1500 -64.3488 -74.4967 -70.9325 -0.0718 87.8911 93.2478 64.4717 -9.4396 2.7178 10.2838 11.4693 -140.2517 23.6877 -180.0012 -145.1086 60.3482 173.4259 -0.4444 -14.9359 -17.2005 -90.6753 33.8474 -103.0065 1.8968 -1.8748 -110.8793 0.1783 0.4194 -0.4840 -1.8000 4.2292 38.8339 -96.8795 -27.4706 86.4047 -6.9120 -4.5647 123.9570 -0.0813 0.6434 -0.4682 -59.6453 15.9413 111.9801 -1.6456 40.8555 -1.1042 -2.7702 -17.0756 -2.1533 9.4173 -21.1510 28.6458 -10.0497 -7.8092 79.4735 4.7425 60.3314 4.5113 -6.2327 -15.9238 1.4612 1.9025 -20.9258 -22.5594 
0.0000 93.1000 0.0000 24.1336 -64.0144 -66.2669 -70.8888 -0.0811 87.8788 94.0724 65.9322 -8.6644 1.6530 11.6480 10.7927 -137.3515 24.7969 178.6350 -142.6243 61.3164 172.0769 -0.1588 -14.5917 -17.8485 -92.1356 33.8686 -104.8139 2.2200 -2.0967 -110.0096 -0.0264 0.3162 -0.1253 -1.6429 4.5871 36.4340 -102.5286 -28.2038 87.5502 -5.2693 -3.8620 123.1950 0.1344 0.4305 -0.1682 -58.7057 14.9765 113.6538 -0.9621 40.4378 -0.6720 -3.7296 -15.8260 -1.9296 10.2270 -21.1094 25.9069 -13.0207 -11.9303 75.2873 4.9938 56.3356 5.8462 -5.3158 -14.3468 1.3290 0.7440 -24.2362 -22.4810 
0.0000 93.1000 0.0000 30.8946 -63.1462 -58.2915 -70.9083 -0.1507 87.9115 92.0272 66.1509 -5.4335 2.4134 12.4740 10.7521 -138.1768 25.5359 178.2499 -147.3243 62.9771 175.5181 0.1683 -15.6613 -18.7468 -94.6736 35.0333 -106.3020 1.6073 -2.2217 -111.2707 -0.0083 -0.0802 0.2133 -1.4437 4.8808 32.9527 -106.2239 -28.8874 87.2838 -4.7603 -2.8457 122.3012 0.7591 0.0154 0.1295 -58.6704 13.4898 114.9639 -1.5861 39.7742 0.1142 -3.6121 -14.7249 -1.5240 10.8810 -22.1998 25.0678 -16.3216 -16.0971 71.5323 3.9292 51.6166 7.6551 -4.5468 -12.6263 1.1246 0.6971 -24.5983 -20.4633 
0.0000 93.1000 0.0000 37.9662 -60.8953 -52.0268 -70.9206 -0.1674 87.9349 90.6732 66.9966 -2.7770 2.6567 13.0886 10.1774 -136.3703 25.4443 178.2638 -149.2142 64.1980 176.6109 0.3088 -15.3534 -18.3150 -93.1344 36.5777 -109.0541 1.8115 -2.1658 -111.3052 0.1120 -0.1555 0.5816 -1.3863 4.9840 32.5338 -109.2181 -28.0855 88.2272 -2.4539 -2.2723 121.1870 0.3256 -0.1538 0.1612 -58.6090 11.4736 114.0581 -1.5738 37.2998 0.8436 -3.6092 -16.1384 -1.4857 10.8204 -21.5801 24.7720 -20.0627 -18.9421 68.0622 3.8403 47.5992 9.7248 -2.6392 -9.9412 0.7166 0.7106 -23.6656 -19.9040 
0.0000 93.1000 0.0000 42.7762 -58.9238 -45.8351 -70.9359 -0.1525 87.9608 87.9390 67.1758 0.6442 2.9348 13.7310 9.0998 -134.5058 25.4945 175.8929 -146.8021 64.3024 175.1629 0.3054 -14.7972 -17.6701 -93.5276 36.0058 -110.4183 2.1234 -2.1357 -110.8847 0.2756 -0.1220 0.2377 -1.3341 4.8052 31.7265 -112.1999 -27.7532 87.1869 -0.8743 -1.0241 120.3826 -0.1008 -0.1513 -0.0203 -57.8709 9.7002 110.9514 -1.7153 35.0117 -1.1454 -3.0456 -17.3756 -1.6045 11.0433 -22.1664 26.6358 -22.0189 -22.1055 63.5826 2.8203 44.8019 10.1605 -0.1494 -6.2249 -0.0098 1.6455 -22.7430 -18.4629 
0.0000 93.1000 0.0000 47.7926 -57.7031 -40.8353 -70.9257 -0.1276 87.9582 88.8809 66.9468 -0.0045 2.7593 13.6496 8.9683 -133.4654 25.7168 174.5338 -146.7527 64.2016 175.1585 0.2875 -14.0095 -17.9385 -92.9097 36.2004 -111.5409 2.0967 -1.2557 -109.8768 0.0686 0.0189 0.0802 -1.2641 4.4224 30.9758 -114.1066 -27.2019 87.3354 -2.0150 -1.0230 118.9659 -0.1181 -0.0566 -0.1336 -57.8151 8.8652 108.0060 -2.1089 34.6743 -2.9944 -2.9179 -18.7472 -1.7698 9.7326 -20.9057 26.8247 -23.6040 -23.9136 63.5938 2.3292 43.1558 10.3511 3.1175 -3.6517 -0.5300 1.9516 -21.1951 -13.4469 
0.0000 93.1000 0.0000 52.8521 -56.1315 -35.4627 -70.9238 -0.1093 87.9794 88.2040 67.1732 -1.8094 2.5855 13.6645 9.3207 -134.6541 26.0091 173.3125 -147.5952 64.8077 176.2501 0.2326 -13.9530 -18.8032 -92.5699 37.0726 -115.0515 0.7496 -0.9167 -109.1189 -0.1498 0.1304 -0.1244 -1.1973 4.1411 30.8518 -117.2760 -27.1157 87.2970 -1.3534 -1.1331 118.0225 -0.0722 0.0252 -0.2617 -56.1704 7.6998 105.8589 -1.8327 35.7330 -2.9967 -1.8614 -19.0434 -2.0776 9.0742 -19.9896 26.9625 -24.5504 -25.9836 64.6996 1.8131 41.3377 8.0933 6.9402 -2.5563 -1.0287 1.7921 -19.6157 -10.0085 
0.0000 93.1000 0.0000 56.7699 -53.9301 -31.4998 -70.9262 -0.1093 87.9978 87.9584 68.0390 -1.7225 3.1688 14.4958 9.1115 -134.4559 26.8922 172.5629 -149.5284 65.3713 177.3432 0.3374 -13.8743 -19.1517 -90.9361 35.9107 -115.9541 0.9622 -1.0291 -108.9629 -0.3612 0.1255 -0.1354 -1.0457 4.0355 29.9608 -120.2105 -26.9603 86.3974 -0.0844 -0.2748 117.8934 0.0567 0.0227 0.0635 -56.8148 5.6791 105.7616 -1.9280 34.9266 -0.9202 -0.6333 -19.6851 -2.0681 7.8146 -17.8677 24.4357 -25.5963 -27.8048 65.5951 1.7118 40.8810 8.0536 6.3057 0.1872 -1.1927 1.7216 -20.9644 -8.3538 
0.0000 93.1000 0.0000 60.6373 -51.9727 -28.7160 -70.9334 -0.0997 88.0000 87.8349 68.0469 -2.0824 4.0140 14.8145 9.0160 -133.5957 27.0410 169.7435 -147.5224 66.1612 176.1592 0.3126 -13.9231 -20.0481 -88.7708 36.7864 -117.9955 2.0532 -1.2204 -106.7810 -0.1420 0.1281 -0.4628 -1.0456 3.9797 30.9023 -122.0340 -24.8826 85.4993 1.3069 0.0239 116.5734 0.3769 -0.0209 -0.0138 -56.9446 4.7947 105.9836 -1.8573 33.6745 -0.8455 -0.8544 -19.9385 -1.9297 6.6574 -17.2051 24.9024 -26.6036 -28.7524 68.8392 2.3220 40.7444 10.2646 4.1586 2.8795 -1.0903 2.0117 -25.8099 -10.8530 
0.0000 93.1000 0.0000 63.6642 -50.0272 -25.8017 -70.9486 -0.0928 88.0086 87.9506 68.1909 -2.3208 3.9660 15.0047 9.0061 -132.6551 27.6729 170.9713 -149.1960 67.3564 177.3506 0.2532 -14.1890 -21.1066 -86.7526 37.8489 -118.9430 2.9080 -1.0728 -106.7606 0.1801 0.1235 -0.6448 -1.1567 3.8357 31.0049 -123.3122 -23.0695 85.3907 1.8293 0.9305 116.0604 0.5683 -0.0632 -0.1904 -57.0198 4.7736 104.7870 -1.5254 32.5292 -1.6523 -0.1822 -20.1666 -2.0329 6.0168 -15.7605 24.7941 -27.5405 -28.8752 72.3237 2.4368 40.9604 12.1905 4.8719 4.0609 -1.4685 1.9204 -27.6479 -13.9927 
